<?xml version="1.0" encoding="UTF-8"?>
<svg version="1.1" xmlns="http://www.w3.org/2000/svg" width="512" height="512">
<path d="M0 0 C7.05555031 5.44229776 12.58631185 10.95285966 17.8359375 18.1875 C18.83560547 17.89746094 18.83560547 17.89746094 19.85546875 17.6015625 C48.21327496 9.58998648 75.52865299 10.71636168 101.63647461 25.02075195 C107.57611745 28.4489213 112.78502099 32.55121096 117.8359375 37.1875 C118.76148438 38.03183594 119.68703125 38.87617188 120.640625 39.74609375 C140.26713568 58.47554785 150.12206086 82.84933482 150.82226562 109.77539062 C150.96988723 135.82005979 139.22069319 159.22411527 121.5859375 177.875 C98.32967998 200.11124623 70.36474795 205.51738307 39.20800781 205.44628906 C37.18573379 205.44900567 35.16346076 205.45257033 33.14118958 205.45690918 C27.69726496 205.46595351 22.25341695 205.46252269 16.80949116 205.45615101 C11.08830384 205.45105228 5.36712266 205.45579289 -0.35406494 205.45892334 C-9.95334031 205.46255059 -19.5525848 205.45779535 -29.15185547 205.44824219 C-40.22642955 205.43734763 -51.30093003 205.44089552 -62.37550235 205.451895 C-71.91564268 205.46098851 -81.45576094 205.46224343 -90.99590421 205.45701766 C-96.68021173 205.4539109 -102.36448472 205.45345314 -108.04878998 205.46009064 C-113.39068338 205.46589402 -118.73248235 205.46181271 -124.07436562 205.45030212 C-126.02698167 205.44767203 -127.97960576 205.44839219 -129.93221855 205.45282745 C-156.18416878 205.50693272 -156.18416878 205.50693272 -167.2890625 199.625 C-167.96573975 199.27493896 -168.64241699 198.92487793 -169.33959961 198.56420898 C-184.12128304 190.59778949 -192.52138607 178.25845872 -198.4140625 162.9375 C-202.35891592 148.47303746 -199.91237125 134.13704875 -192.88671875 121.03515625 C-184.16958461 106.62519982 -170.72863359 96.09715575 -154.40234375 91.64453125 C-151.61511035 91.07541029 -148.9975603 90.96380281 -146.1640625 91.1875 C-146.32342285 90.63908447 -146.4827832 90.09066895 -146.64697266 89.52563477 C-151.42140018 67.93701702 -145.33175292 44.72122363 -134.1640625 26.1875 C-131.67006138 22.36461273 -129.01140575 18.75271156 -126.1640625 15.1875 C-125.49890625 14.27677734 -125.49890625 14.27677734 -124.8203125 13.34765625 C-95.40894478 -24.76158547 -36.8707855 -26.94753706 0 0 Z M-110.1640625 25.1875 C-125.58542339 43.23021337 -129.23464249 62.12849899 -128.1640625 85.1875 C-127.9410513 87.33630588 -127.69841788 89.48344853 -127.4140625 91.625 C-126.80670628 96.6620076 -128.2889786 99.09268353 -131.1640625 103.1875 C-131.1640625 103.8475 -131.1640625 104.5075 -131.1640625 105.1875 C-135.999983 107.69501433 -140.36091933 109.31561605 -145.78515625 110.1237793 C-157.62517306 111.92132438 -166.585993 116.6516219 -174.1640625 126.1875 C-180.13033752 135.85802719 -183.00763338 145.98570454 -180.4765625 157.24609375 C-176.84683422 169.11833001 -170.80456 177.49653684 -159.796875 183.47265625 C-152.82262841 186.74843874 -146.29998624 187.33637587 -138.63352966 187.32121277 C-137.36553004 187.3246111 -137.36553004 187.3246111 -136.07191426 187.32807809 C-133.24641517 187.33439539 -130.42096434 187.33359017 -127.59545898 187.33276367 C-125.56643105 187.33575667 -123.53740369 187.33915953 -121.50837708 187.34294128 C-115.99976767 187.35177344 -110.49117381 187.35411914 -104.98255801 187.35475707 C-101.53741784 187.35546828 -98.0922816 187.35760401 -94.64714241 187.36025429 C-82.61754226 187.36950673 -70.5879532 187.3735895 -58.55834961 187.37280273 C-47.36358515 187.37220271 -36.16886899 187.38274003 -24.97411674 187.3985464 C-15.35009073 187.41164832 -5.72608045 187.41698548 3.8979544 187.41634732 C9.64001567 187.41609302 15.38203404 187.41890669 21.12408638 187.42952538 C26.53068363 187.43925043 31.93719739 187.43925544 37.34379768 187.43200874 C39.32017642 187.4309682 41.29656047 187.433294 43.27293015 187.4393692 C56.48008223 187.47731312 69.49107777 187.45146117 81.9609375 182.5 C82.63415039 182.23727295 83.30736328 181.9745459 84.00097656 181.70385742 C102.23667536 174.3160057 116.06069352 160.35231649 124.6484375 142.8125 C125.41482861 140.95240492 126.14269463 139.07607707 126.8359375 137.1875 C127.2278125 136.13949219 127.6196875 135.09148437 128.0234375 134.01171875 C134.41648711 114.05563682 132.19436857 91.96745155 122.7734375 73.4375 C118.5288632 65.58125964 113.24732866 59.34691509 106.8359375 53.1875 C105.70865234 52.06601563 105.70865234 52.06601563 104.55859375 50.921875 C88.41627579 35.62608004 68.81735106 31.60981446 47.3125 31.8203125 C40.91676209 32.03866714 35.42690322 33.32695802 29.40991211 35.39111328 C22.67858379 37.69607566 16.63225284 38.62557442 9.88671875 36.0703125 C6.11444947 33.74222826 3.9167227 31.01622582 1.2109375 27.5625 C-10.98238788 12.74103932 -27.10784777 3.80714996 -46.1640625 1.1875 C-71.37566105 -0.45535309 -92.3894951 7.00432185 -110.1640625 25.1875 Z " fill="#000000" transform="translate(278.1640625,172.8125)"/>
<path d="M0 0 C2 1 2 1 2 1 Z " fill="#000000" transform="translate(129,262)"/>
<path d="" fill="#000000" transform="translate(0,0)"/>
<path d="" fill="#000000" transform="translate(0,0)"/>
<path d="" fill="#000000" transform="translate(0,0)"/>
<path d="" fill="#000000" transform="translate(0,0)"/>
<path d="" fill="#000000" transform="translate(0,0)"/>
<path d="" fill="#000000" transform="translate(0,0)"/>
<path d="" fill="#000000" transform="translate(0,0)"/>
<path d="" fill="#000000" transform="translate(0,0)"/>
<path d="" fill="#000000" transform="translate(0,0)"/>
<path d="" fill="#000000" transform="translate(0,0)"/>
<path d="" fill="#000000" transform="translate(0,0)"/>
<path d="" fill="#000000" transform="translate(0,0)"/>
<path d="" fill="#000000" transform="translate(0,0)"/>
<path d="" fill="#000000" transform="translate(0,0)"/>
<path d="" fill="#000000" transform="translate(0,0)"/>
<path d="" fill="#000000" transform="translate(0,0)"/>
<path d="" fill="#000000" transform="translate(0,0)"/>
<path d="" fill="#000000" transform="translate(0,0)"/>
<path d="" fill="#000000" transform="translate(0,0)"/>
<path d="" fill="#000000" transform="translate(0,0)"/>
<path d="" fill="#000000" transform="translate(0,0)"/>
<path d="" fill="#000000" transform="translate(0,0)"/>
<path d="" fill="#000000" transform="translate(0,0)"/>
<path d="" fill="#000000" transform="translate(0,0)"/>
<path d="" fill="#000000" transform="translate(0,0)"/>
<path d="" fill="#000000" transform="translate(0,0)"/>
<path d="" fill="#000000" transform="translate(0,0)"/>
<path d="" fill="#000000" transform="translate(0,0)"/>
<path d="" fill="#000000" transform="translate(0,0)"/>
<path d="" fill="#000000" transform="translate(0,0)"/>
<path d="" fill="#000000" transform="translate(0,0)"/>
<path d="" fill="#000000" transform="translate(0,0)"/>
<path d="" fill="#000000" transform="translate(0,0)"/>
<path d="" fill="#000000" transform="translate(0,0)"/>
<path d="" fill="#000000" transform="translate(0,0)"/>
<path d="" fill="#000000" transform="translate(0,0)"/>
<path d="" fill="#000000" transform="translate(0,0)"/>
<path d="" fill="#000000" transform="translate(0,0)"/>
<path d="" fill="#000000" transform="translate(0,0)"/>
<path d="" fill="#000000" transform="translate(0,0)"/>
<path d="" fill="#000000" transform="translate(0,0)"/>
<path d="" fill="#000000" transform="translate(0,0)"/>
<path d="" fill="#000000" transform="translate(0,0)"/>
<path d="" fill="#000000" transform="translate(0,0)"/>
<path d="" fill="#000000" transform="translate(0,0)"/>
<path d="" fill="#000000" transform="translate(0,0)"/>
<path d="" fill="#000000" transform="translate(0,0)"/>
<path d="" fill="#000000" transform="translate(0,0)"/>
<path d="" fill="#000000" transform="translate(0,0)"/>
<path d="" fill="#000000" transform="translate(0,0)"/>
<path d="" fill="#000000" transform="translate(0,0)"/>
<path d="" fill="#000000" transform="translate(0,0)"/>
<path d="" fill="#000000" transform="translate(0,0)"/>
<path d="" fill="#000000" transform="translate(0,0)"/>
<path d="" fill="#000000" transform="translate(0,0)"/>
</svg>
